<svg width="104" height="41" viewBox="0 0 104 41" fill="none" xmlns="http://www.w3.org/2000/svg">
<path fill-rule="evenodd" clip-rule="evenodd" d="M8.55273 4.09787C7.12207 5.09823 5.82837 6.28098 4.70532 7.6124C9.29462 7.18633 15.1252 7.88204 21.8944 11.2667C29.123 14.8809 34.9438 15.0031 38.9948 14.2217C38.6272 13.1088 38.1644 12.0392 37.6163 11.0224C32.979 11.5115 27.034 10.8641 20.1056 7.39998C15.706 5.20018 11.8278 4.29401 8.55273 4.09787ZM34.9074 7.16665C31.2453 3.075 25.9234 0.5 20 0.5C18.2605 0.5 16.5727 0.722107 14.9637 1.13948C17.1429 1.73409 19.4579 2.60399 21.8944 3.82227C26.967 6.35853 31.3464 7.17516 34.9074 7.16665ZM39.8609 18.1281C34.9669 19.0945 28.2088 18.896 20.1056 14.8444C12.53 11.0566 6.50043 11.1043 2.4339 12.008C2.224 12.0546 2.01904 12.1036 1.81903 12.1546C1.28662 13.3125 0.861634 14.5301 0.556702 15.7945C0.882386 15.7075 1.21893 15.6248 1.56616 15.5476C6.49957 14.4513 13.4701 14.4989 21.8944 18.7111C29.4701 22.4989 35.4996 22.4512 39.5662 21.5475C39.7055 21.5166 39.8428 21.4846 39.9778 21.4516C39.9926 21.1363 40 20.819 40 20.5C40 19.6975 39.9528 18.906 39.8609 18.1281ZM39.3248 25.6723C34.4783 26.5196 27.917 26.1944 20.1056 22.2888C12.53 18.501 6.50043 18.5487 2.4339 19.4524C1.53125 19.6529 0.719239 19.8972 0.00293 20.1551C0.000977 20.2698 0 20.3848 0 20.5C0 31.5457 8.95429 40.5 20 40.5C29.2571 40.5 37.0453 34.2109 39.3248 25.6723Z" fill="url(#paint0_linear_832_821)"/>
<path d="M70.544 11.508V15.732H66.032V28.5H60.704V15.732H56.24V11.508H70.544ZM78.6371 28.668C76.6051 28.668 74.9251 28.196 73.5971 27.252C72.2851 26.292 71.5731 24.892 71.4611 23.052H77.1251C77.2051 24.028 77.6371 24.516 78.4211 24.516C78.7091 24.516 78.9491 24.452 79.1411 24.324C79.3491 24.18 79.4531 23.964 79.4531 23.676C79.4531 23.276 79.2371 22.956 78.8051 22.716C78.3731 22.46 77.7011 22.172 76.7891 21.852C75.7011 21.468 74.7971 21.092 74.0771 20.724C73.3731 20.356 72.7651 19.82 72.2531 19.116C71.7411 18.412 71.4931 17.508 71.5091 16.404C71.5091 15.3 71.7891 14.364 72.3491 13.596C72.9251 12.812 73.7011 12.22 74.6771 11.82C75.6691 11.42 76.7811 11.22 78.0131 11.22C80.0931 11.22 81.7411 11.7 82.9571 12.66C84.1891 13.62 84.8371 14.972 84.9011 16.716H79.1651C79.1491 16.236 79.0291 15.892 78.8051 15.684C78.5811 15.476 78.3091 15.372 77.9891 15.372C77.7651 15.372 77.5811 15.452 77.4371 15.612C77.2931 15.756 77.2211 15.964 77.2211 16.236C77.2211 16.62 77.4291 16.94 77.8451 17.196C78.2771 17.436 78.9571 17.732 79.8851 18.084C80.9571 18.484 81.8371 18.868 82.5251 19.236C83.2291 19.604 83.8371 20.116 84.3491 20.772C84.8611 21.428 85.1171 22.252 85.1171 23.244C85.1171 24.284 84.8611 25.22 84.3491 26.052C83.8371 26.868 83.0931 27.508 82.1171 27.972C81.1411 28.436 79.9811 28.668 78.6371 28.668ZM86.5091 19.98C86.5091 18.3 86.8451 16.804 87.5171 15.492C88.2051 14.18 89.1811 13.164 90.4451 12.444C91.7091 11.708 93.1971 11.34 94.9091 11.34C96.3811 11.34 97.6931 11.62 98.8451 12.18C100.013 12.724 100.957 13.5 101.677 14.508C102.413 15.516 102.901 16.692 103.141 18.036H97.5251C97.2691 17.476 96.9011 17.044 96.4211 16.74C95.9571 16.42 95.4211 16.26 94.8131 16.26C93.9171 16.26 93.2051 16.596 92.6771 17.268C92.1651 17.94 91.9091 18.844 91.9091 19.98C91.9091 21.116 92.1651 22.02 92.6771 22.692C93.2051 23.364 93.9171 23.7 94.8131 23.7C95.4211 23.7 95.9571 23.548 96.4211 23.244C96.9011 22.924 97.2691 22.484 97.5251 21.924H103.141C102.901 23.268 102.413 24.444 101.677 25.452C100.957 26.46 100.013 27.244 98.8451 27.804C97.6931 28.348 96.3811 28.62 94.9091 28.62C93.1971 28.62 91.7091 28.26 90.4451 27.54C89.1811 26.804 88.2051 25.78 87.5171 24.468C86.8451 23.156 86.5091 21.66 86.5091 19.98Z" fill="#191825"/>
<defs>
<linearGradient id="paint0_linear_832_821" x1="36" y1="43.7" x2="-3.73321" y2="36.0931" gradientUnits="userSpaceOnUse">
<stop stop-color="#5D50C6"/>
<stop offset="1" stop-color="#F85E9F"/>
</linearGradient>
</defs>
</svg>
